<svg width="24" height="24" viewBox="0 0 24 24" fill="none" xmlns="http://www.w3.org/2000/svg">
<path d="M20.25 1H3.75C3.02065 1 2.32118 1.28973 1.80546 1.80546C1.28973 2.32118 1 3.02065 1 3.75V20.25C1 20.9793 1.28973 21.6788 1.80546 22.1945C2.32118 22.7103 3.02065 23 3.75 23H20.25C20.9793 23 21.6788 22.7103 22.1945 22.1945C22.7103 21.6788 23 20.9793 23 20.25V3.75C23 3.02065 22.7103 2.32118 22.1945 1.80546C21.6788 1.28973 20.9793 1 20.25 1ZM13.375 20.25H3.75V10.625H13.375V20.25ZM20.25 20.25H16.125V10.625H20.25V20.25ZM20.25 7.875H3.75V3.75H20.25V7.875Z" fill="white"/>
</svg>
